<svg width="22" height="22" viewBox="0 0 22 22" fill="none" xmlns="http://www.w3.org/2000/svg">
<path d="M0.388585 10.6073L5.45783 12.4993L7.41993 18.8094C7.54548 19.2136 8.03967 19.363 8.36769 19.0948L11.1934 16.7912C11.4896 16.5499 11.9115 16.5379 12.221 16.7626L17.3175 20.4627C17.6684 20.7178 18.1655 20.5255 18.2535 20.1015L21.987 2.14282C22.0831 1.67965 21.628 1.29326 21.1869 1.46383L0.382645 9.4895C-0.130762 9.6875 -0.126288 10.4144 0.388585 10.6073ZM7.10372 11.4922L17.0109 5.39032C17.189 5.28098 17.3721 5.52173 17.2192 5.66356L9.04295 13.2638C8.75555 13.5313 8.57017 13.8894 8.51766 14.278L8.23914 16.342C8.20225 16.6176 7.81513 16.6449 7.73908 16.3782L6.6679 12.6144C6.54521 12.1851 6.724 11.7265 7.10372 11.4922Z" fill="white"/>
</svg>
