<svg width="22" height="22" viewBox="0 0 22 22" fill="none" xmlns="http://www.w3.org/2000/svg">
<g clip-path="url(#clip0_48_247)">
<path d="M19.5064 9.97172C19.8192 9.56729 20.0676 9.24279 20.251 8.99797C21.572 7.24164 22.1446 6.11969 21.9691 5.63055L21.9003 5.51599C21.8545 5.44718 21.7359 5.38399 21.5452 5.32679C21.3542 5.26963 21.1099 5.2605 20.8122 5.29823L17.5134 5.3215C17.437 5.3139 17.3606 5.31567 17.2842 5.32679C17.2079 5.3384 17.1583 5.35006 17.1353 5.36117C17.1122 5.37283 17.0933 5.38217 17.0781 5.38977L17.0323 5.42416C16.9942 5.44693 16.9522 5.48714 16.9064 5.54458C16.8606 5.60199 16.8222 5.66852 16.7918 5.74515C16.4329 6.66906 16.0245 7.52825 15.5662 8.32243C15.2836 8.79592 15.0239 9.20667 14.7875 9.55365C14.5507 9.90142 14.3522 10.1572 14.1918 10.321C14.0315 10.4852 13.8862 10.6172 13.7565 10.7161C13.6265 10.8157 13.5274 10.8575 13.4589 10.8423C13.39 10.8272 13.325 10.812 13.2641 10.7963C13.1571 10.7278 13.0711 10.6344 13.0064 10.5158C12.9414 10.3977 12.8976 10.2487 12.8746 10.0691C12.8518 9.88981 12.8382 9.73504 12.8346 9.60502C12.8306 9.4753 12.8326 9.29218 12.8404 9.05517C12.8481 8.8184 12.8518 8.65834 12.8518 8.57412C12.8518 8.28425 12.8576 7.96913 12.8691 7.62921C12.8805 7.28954 12.8901 7.02017 12.8976 6.8216C12.9052 6.62331 12.909 6.41312 12.909 6.19156C12.909 5.9705 12.8956 5.79647 12.8687 5.6703C12.8419 5.54458 12.8017 5.42242 12.7486 5.30381C12.695 5.1857 12.6168 5.09387 12.5136 5.02915C12.4105 4.96414 12.2827 4.91282 12.13 4.87434C11.725 4.78251 11.2096 4.73346 10.5836 4.7254C9.16319 4.71073 8.25065 4.80227 7.84597 5.00055C7.68562 5.08478 7.54044 5.19909 7.41071 5.34427C7.27313 5.51247 7.25416 5.60426 7.35356 5.61893C7.81183 5.68774 8.13613 5.85214 8.32706 6.11164L8.39587 6.24897C8.44922 6.34861 8.50262 6.52416 8.55622 6.77605C8.60961 7.02798 8.644 7.30669 8.65941 7.61223C8.6976 8.16965 8.6976 8.64669 8.65941 9.04405C8.62123 9.44137 8.58507 9.75045 8.55068 9.97151C8.51626 10.1931 8.46468 10.3724 8.39612 10.5097C8.32731 10.6475 8.28156 10.7315 8.25854 10.7621C8.23552 10.7924 8.21655 10.8117 8.20138 10.8193C8.10199 10.8572 7.99905 10.8765 7.89209 10.8765C7.7851 10.8765 7.65533 10.8228 7.50258 10.7158C7.3498 10.6094 7.19122 10.4621 7.02732 10.275C6.86292 10.0881 6.67802 9.82633 6.47163 9.49018C6.26549 9.15456 6.0515 8.7572 5.83019 8.29917L5.64707 7.96681C5.53251 7.75336 5.37593 7.442 5.17739 7.03352C4.97885 6.62504 4.80305 6.23 4.65055 5.84784C4.58935 5.68774 4.49776 5.56558 4.37564 5.48135L4.31849 5.44697C4.2803 5.41659 4.21909 5.38399 4.13512 5.34981C4.05089 5.31543 3.9634 5.29063 3.87157 5.27521L0.733062 5.29799C0.412363 5.29799 0.194858 5.37085 0.0802988 5.51599L0.0345082 5.58455C0.011365 5.62298 0 5.68419 0 5.76792C0 5.85214 0.0230193 5.95509 0.0688098 6.077C0.527087 7.15395 1.02537 8.19246 1.56357 9.1925C2.10207 10.1931 2.56973 10.9989 2.9668 11.6097C3.36387 12.221 3.76855 12.7971 4.18107 13.3394C4.5936 13.8816 4.86649 14.2289 5.00001 14.3814C5.13354 14.5345 5.23851 14.6491 5.31493 14.7251L5.60124 15.0003C5.78436 15.1835 6.05373 15.4029 6.40886 15.6589C6.76394 15.9149 7.157 16.1668 7.58875 16.4147C8.02 16.663 8.52229 16.8651 9.09488 17.0219C9.66751 17.1787 10.2249 17.2417 10.7672 17.2108H12.0844C12.3518 17.1881 12.554 17.1044 12.6915 16.9589L12.7372 16.9018C12.7675 16.8562 12.7964 16.7854 12.8232 16.69C12.8497 16.5947 12.8635 16.4895 12.8635 16.3752C12.8556 16.0469 12.8807 15.7505 12.9378 15.4874C12.995 15.2239 13.0599 15.0256 13.1326 14.8916C13.2052 14.7582 13.2871 14.6455 13.3789 14.5536C13.4705 14.4618 13.5352 14.4069 13.5736 14.3877C13.6118 14.369 13.6425 14.3556 13.6653 14.3475C13.8483 14.2865 14.0641 14.3457 14.3124 14.525C14.5606 14.7049 14.7935 14.9259 15.0113 15.1894C15.2287 15.453 15.4903 15.7486 15.7958 16.0772C16.1011 16.4055 16.3684 16.6498 16.5976 16.8101L16.8267 16.948C16.9794 17.0393 17.1778 17.1233 17.4224 17.1999C17.6667 17.2761 17.8807 17.2953 18.0638 17.2571L20.9961 17.211C21.2862 17.211 21.5116 17.1635 21.672 17.0679C21.8323 16.973 21.9277 16.8673 21.9583 16.753C21.9886 16.6385 21.9907 16.5092 21.9641 16.3638C21.9373 16.2188 21.9105 16.1177 21.884 16.0605C21.8572 16.0033 21.8323 15.9553 21.8093 15.9173C21.4275 15.2302 20.6982 14.3861 19.6215 13.3858L19.5985 13.3631L19.5872 13.3515L19.5758 13.3403H19.5643C19.0754 12.8744 18.7663 12.5613 18.6365 12.4007C18.3999 12.0957 18.3462 11.7864 18.4762 11.4733C18.5673 11.2358 18.9108 10.7356 19.5064 9.97172Z" fill="white"/>
</g>
<defs>
<clipPath id="clip0_48_247">
<rect width="22" height="22" fill="white"/>
</clipPath>
</defs>
</svg>
